<svg width="0" height="0" class="hidden">
  <symbol xmlns="http://www.w3.org/2000/svg" viewBox="0 96 960 960" id="location_on">
    <path d="M480.089 566Q509 566 529.5 545.411q20.5-20.588 20.5-49.5Q550 467 529.411 446.5q-20.588-20.5-49.5-20.5Q451 426 430.5 446.589q-20.5 20.588-20.5 49.5Q410 525 430.589 545.5q20.588 20.5 49.5 20.5ZM480 976Q319 839 239.5 721.5T160 504q0-150 96.5-239T480 176q127 0 223.5 89T800 504q0 100-79.5 217.5T480 976Z"></path>
  </symbol>
  <symbol xmlns="http://www.w3.org/2000/svg" viewBox="0 96 960 960" id="my_location">
    <path d="M450 1014v-75q-137-14-228-105T117 606H42v-60h75q14-137 105-228t228-105v-75h60v75q137 14 228 105t105 228h75v60h-75q-14 137-105 228T510 939v75h-60Zm30-134q125 0 214.5-89.5T784 576q0-125-89.5-214.5T480 272q-125 0-214.5 89.5T176 576q0 125 89.5 214.5T480 880Zm0-154q-63 0-106.5-43.5T330 576q0-63 43.5-106.5T480 426q63 0 106.5 43.5T630 576q0 63-43.5 106.5T480 726Z"></path>
  </symbol>
  <symbol xmlns="http://www.w3.org/2000/svg" viewBox="0 96 960 960" id="near_me">
    <path d="M527 936 413 643 120 529v-43l720-270-270 720h-43Zm18-114 192-503-502 192 224 86 86 225Zm-86-225Z"></path>
  </symbol>
  <symbol xmlns="http://www.w3.org/2000/svg" viewBox="0 96 960 960" id="search">
    <path d="M796 935 533 672q-30 26-69.959 40.5T378 727q-108.162 0-183.081-75Q120 577 120 471t75-181q75-75 181.5-75t181 75Q632 365 632 471.15 632 514 618 554q-14 40-42 75l264 262-44 44ZM377 667q81.25 0 138.125-57.5T572 471q0-81-56.875-138.5T377 275q-82.083 0-139.542 57.5Q180 390 180 471t57.458 138.5Q294.917 667 377 667Z"></path>
  </symbol>
  <symbol fill="#000000" version="1.1" id="celsius" xmlns="http://www.w3.org/2000/svg" xmlns:xlink="http://www.w3.org/1999/xlink" xml:space="preserve" viewBox="0 0 25.924 25.924">
    <g>
      <path d="M4.699,2.278C2.107,2.278,0,4.386,0,6.977c0,2.593,2.107,4.698,4.699,4.698s4.7-2.106,4.699-4.698
		C9.398,4.386,7.291,2.278,4.699,2.278z M4.699,9.327c-1.295,0-2.35-1.054-2.35-2.35c0-1.294,1.055-2.35,2.35-2.35
		s2.35,1.055,2.35,2.35C7.049,8.273,5.994,9.327,4.699,9.327z M21.324,19.971c-3.91,0-6.227-2.463-6.227-6.369
		c0-4.342,2.721-6.456,6.195-6.456c1.592,0,2.836,0.349,3.703,0.725l0.928-3.475c-0.782-0.435-2.52-0.869-4.807-0.869
		c-5.904,0-10.652,3.678-10.652,10.336c0,5.558,3.475,9.783,10.221,9.783c2.346,0,4.198-0.464,4.979-0.841l-0.637-3.473
		C24.131,19.709,22.683,19.971,21.324,19.971z"></path>
    </g>
  </symbol>
  <symbol xmlns="http://www.w3.org/2000/svg" viewBox="0 96 960 960" id="chevron_right">
    <path d="m375 816-43-43 198-198-198-198 43-43 241 241-241 241Z"></path>
  </symbol>
  <symbol xmlns="http://www.w3.org/2000/svg" viewBox="0 96 960 960" id="close">
    <path d="m249 849-42-42 231-231-231-231 42-42 231 231 231-231 42 42-231 231 231 231-42 42-231-231-231 231Z"></path>
  </symbol>
  <symbol version="1.1" id="fahrenheit" xmlns="http://www.w3.org/2000/svg" xmlns:xlink="http://www.w3.org/1999/xlink" xml:space="preserve" viewBox="0 0 127.122 127.122">
    <g>
      <path d="M25.553,5.496C11.46,5.496,0,16.962,0,31.054c0,14.103,11.46,25.553,25.553,25.553
		s25.558-11.455,25.558-25.553C51.111,16.962,39.645,5.496,25.553,5.496z M25.553,43.836c-7.049,0-12.776-5.733-12.776-12.782
		c0-7.038,5.727-12.782,12.776-12.782s12.782,5.744,12.782,12.782C38.335,38.103,32.602,43.836,25.553,43.836z M127.122,34.323
		V14.454H61.766v107.171h24.171V78.537h38.481V58.815H85.937V34.323H127.122z"></path>
    </g>
  </symbol>
</svg>