<svg width="0" height="0" class="hidden">
  <symbol xmlns="http://www.w3.org/2000/svg" viewBox="0 96 960 960" id="my_location">
    <path d="M450 1014v-75q-137-14-228-105T117 606H42v-60h75q14-137 105-228t228-105v-75h60v75q137 14 228 105t105 228h75v60h-75q-14 137-105 228T510 939v75h-60Zm30-134q125 0 214.5-89.5T784 576q0-125-89.5-214.5T480 272q-125 0-214.5 89.5T176 576q0 125 89.5 214.5T480 880Zm0-154q-63 0-106.5-43.5T330 576q0-63 43.5-106.5T480 426q63 0 106.5 43.5T630 576q0 63-43.5 106.5T480 726Z"></path>
  </symbol>
  <symbol xmlns="http://www.w3.org/2000/svg" viewBox="0 96 960 960" id="near_me">
    <path d="M527 936 413 643 120 529v-43l720-270-270 720h-43Z"></path>
  </symbol>
  <symbol xmlns="http://www.w3.org/2000/svg" viewBox="0 96 960 960" id="search">
    <path d="M796 935 533 672q-30 26-69.959 40.5T378 727q-108.162 0-183.081-75Q120 577 120 471t75-181q75-75 181.5-75t181 75Q632 365 632 471.15 632 514 618 554q-14 40-42 75l264 262-44 44ZM377 667q81.25 0 138.125-57.5T572 471q0-81-56.875-138.5T377 275q-82.083 0-139.542 57.5Q180 390 180 471t57.458 138.5Q294.917 667 377 667Z"></path>
  </symbol>
  <symbol xmlns="http://www.w3.org/2000/svg" viewBox="0 96 960 960" id="chevron_right">
    <path d="m375 816-43-43 198-198-198-198 43-43 241 241-241 241Z"></path>
  </symbol>
  <symbol xmlns="http://www.w3.org/2000/svg" viewBox="0 96 960 960" id="close">
    <path d="m249 849-42-42 231-231-231-231 42-42 231 231 231-231 42 42-231 231 231 231-42 42-231-231-231 231Z"></path>
  </symbol>
  <symbol xmlns="http://www.w3.org/2000/svg" viewBox="0 96 960 960" id="location_on">
    <path d="M480.089 566Q509 566 529.5 545.411q20.5-20.588 20.5-49.5Q550 467 529.411 446.5q-20.588-20.5-49.5-20.5Q451 426 430.5 446.589q-20.5 20.588-20.5 49.5Q410 525 430.589 545.5q20.588 20.5 49.5 20.5ZM480 976Q319 839 239.5 721.5T160 504q0-150 96.5-239T480 176q127 0 223.5 89T800 504q0 100-79.5 217.5T480 976Z"></path>
  </symbol>
</svg>